# 3ds Max Wavefront OBJ Exporter v0.97b - (c)2007 guruware
# File Created: 20.11.2017 15:16:00

mtllib engineTrail.mtl

#
# object Sides
#

v  20.0000 0.0000 -0.0000
v  18.3526 10.0000 -4.9176
v  19.0000 10.0000 -0.0000
v  19.3185 0.0000 -5.1764
v  16.4545 10.0000 -9.5000
v  17.3205 0.0000 -10.0000
v  13.4350 10.0000 -13.4350
v  14.1421 0.0000 -14.1421
v  9.5000 10.0000 -16.4545
v  10.0000 0.0000 -17.3205
v  4.9176 10.0000 -18.3526
v  5.1764 0.0000 -19.3185
v  0.0000 10.0000 -19.0000
v  0.0000 0.0000 -20.0000
v  -4.9176 10.0000 -18.3526
v  -5.1764 0.0000 -19.3185
v  -9.5000 10.0000 -16.4545
v  -10.0000 0.0000 -17.3205
v  -13.4350 10.0000 -13.4350
v  -14.1421 0.0000 -14.1421
v  -16.4545 10.0000 -9.5000
v  -17.3205 0.0000 -10.0000
v  -18.3526 10.0000 -4.9176
v  -19.3185 0.0000 -5.1764
v  -19.0000 10.0000 -0.0000
v  -20.0000 0.0000 -0.0000
v  -18.3526 10.0000 4.9176
v  -19.3185 0.0000 5.1764
v  -16.4545 10.0000 9.5000
v  -17.3205 0.0000 10.0000
v  -13.4350 10.0000 13.4350
v  -14.1421 0.0000 14.1421
v  -9.5000 10.0000 16.4545
v  -10.0000 0.0000 17.3205
v  -4.9176 10.0000 18.3526
v  -5.1764 0.0000 19.3185
v  -0.0000 10.0000 19.0000
v  -0.0000 0.0000 20.0000
v  4.9176 10.0000 18.3526
v  5.1764 0.0000 19.3185
v  9.5000 10.0000 16.4545
v  10.0000 0.0000 17.3205
v  13.4350 10.0000 13.4350
v  14.1421 0.0000 14.1421
v  16.4545 10.0000 9.5000
v  17.3205 0.0000 10.0000
v  18.3526 10.0000 4.9176
v  19.3185 0.0000 5.1764
v  17.3867 20.0000 -4.6587
v  18.0000 20.0000 -0.0000
v  15.5885 20.0000 -9.0000
v  12.7279 20.0000 -12.7279
v  9.0000 20.0000 -15.5885
v  4.6587 20.0000 -17.3867
v  0.0000 20.0000 -18.0000
v  -4.6587 20.0000 -17.3867
v  -9.0000 20.0000 -15.5885
v  -12.7279 20.0000 -12.7279
v  -15.5885 20.0000 -9.0000
v  -17.3867 20.0000 -4.6587
v  -18.0000 20.0000 -0.0000
v  -17.3867 20.0000 4.6587
v  -15.5885 20.0000 9.0000
v  -12.7279 20.0000 12.7279
v  -9.0000 20.0000 15.5885
v  -4.6587 20.0000 17.3867
v  -0.0000 20.0000 18.0000
v  4.6587 20.0000 17.3867
v  9.0000 20.0000 15.5885
v  12.7279 20.0000 12.7279
v  15.5885 20.0000 9.0000
v  17.3867 20.0000 4.6588
v  16.4207 30.0000 -4.3999
v  17.0000 30.0000 -0.0000
v  14.7224 30.0000 -8.5000
v  12.0208 30.0000 -12.0208
v  8.5000 30.0000 -14.7224
v  4.3999 30.0000 -16.4207
v  0.0000 30.0000 -17.0000
v  -4.3999 30.0000 -16.4207
v  -8.5000 30.0000 -14.7224
v  -12.0208 30.0000 -12.0208
v  -14.7224 30.0000 -8.5000
v  -16.4207 30.0000 -4.3999
v  -17.0000 30.0000 -0.0000
v  -16.4207 30.0000 4.3999
v  -14.7224 30.0000 8.5000
v  -12.0208 30.0000 12.0208
v  -8.5000 30.0000 14.7224
v  -4.3999 30.0000 16.4207
v  -0.0000 30.0000 17.0000
v  4.3999 30.0000 16.4207
v  8.5000 30.0000 14.7224
v  12.0208 30.0000 12.0208
v  14.7224 30.0000 8.5000
v  16.4207 30.0000 4.3999
v  15.4548 40.0000 -4.1411
v  16.0000 40.0000 -0.0000
v  13.8564 40.0000 -8.0000
v  11.3137 40.0000 -11.3137
v  8.0000 40.0000 -13.8564
v  4.1411 40.0000 -15.4548
v  0.0000 40.0000 -16.0000
v  -4.1411 40.0000 -15.4548
v  -8.0000 40.0000 -13.8564
v  -11.3137 40.0000 -11.3137
v  -13.8564 40.0000 -8.0000
v  -15.4548 40.0000 -4.1411
v  -16.0000 40.0000 -0.0000
v  -15.4548 40.0000 4.1411
v  -13.8564 40.0000 8.0000
v  -11.3137 40.0000 11.3137
v  -8.0000 40.0000 13.8564
v  -4.1411 40.0000 15.4548
v  -0.0000 40.0000 16.0000
v  4.1411 40.0000 15.4548
v  8.0000 40.0000 13.8564
v  11.3137 40.0000 11.3137
v  13.8564 40.0000 8.0000
v  15.4548 40.0000 4.1411
v  14.4889 50.0000 -3.8823
v  15.0000 50.0000 -0.0000
v  12.9904 50.0000 -7.5000
v  10.6066 50.0000 -10.6066
v  7.5000 50.0000 -12.9904
v  3.8823 50.0000 -14.4889
v  0.0000 50.0000 -15.0000
v  -3.8823 50.0000 -14.4889
v  -7.5000 50.0000 -12.9904
v  -10.6066 50.0000 -10.6066
v  -12.9904 50.0000 -7.5000
v  -14.4889 50.0000 -3.8823
v  -15.0000 50.0000 -0.0000
v  -14.4889 50.0000 3.8823
v  -12.9904 50.0000 7.5000
v  -10.6066 50.0000 10.6066
v  -7.5000 50.0000 12.9904
v  -3.8823 50.0000 14.4889
v  -0.0000 50.0000 15.0000
v  3.8823 50.0000 14.4889
v  7.5000 50.0000 12.9904
v  10.6066 50.0000 10.6066
v  12.9904 50.0000 7.5000
v  14.4889 50.0000 3.8823
# 144 vertices

vn 0.9950 0.0995 0.0000
vn 0.9611 0.0995 -0.2575
vn 0.8617 0.0995 -0.4975
vn 0.7036 0.0995 -0.7036
vn 0.4975 0.0995 -0.8617
vn 0.2575 0.0995 -0.9611
vn 0.0000 0.0995 -0.9950
vn -0.2575 0.0995 -0.9611
vn -0.4975 0.0995 -0.8617
vn -0.7036 0.0995 -0.7036
vn -0.8617 0.0995 -0.4975
vn -0.9611 0.0995 -0.2575
vn -0.9950 0.0995 -0.0000
vn -0.9611 0.0995 0.2575
vn -0.8617 0.0995 0.4975
vn -0.7036 0.0995 0.7036
vn -0.4975 0.0995 0.8617
vn -0.2575 0.0995 0.9611
vn -0.0000 0.0995 0.9950
vn 0.2575 0.0995 0.9611
vn 0.4975 0.0995 0.8617
vn 0.7036 0.0995 0.7036
vn 0.8617 0.0995 0.4975
vn 0.9611 0.0995 0.2575
# 24 vertex normals

vt 0.7500 0.0000 1.0000
vt 0.7917 0.2000 0.9500
vt 0.7500 0.2000 0.9500
vt 0.7917 0.0000 1.0000
vt 0.8333 0.2000 0.9500
vt 0.8333 0.0000 1.0000
vt 0.8750 0.2000 0.9500
vt 0.8750 0.0000 1.0000
vt 0.9167 0.2000 0.9500
vt 0.9167 0.0000 1.0000
vt 0.9583 0.2000 0.9500
vt 0.9583 0.0000 1.0000
vt 1.0000 0.2000 0.9500
vt 1.0000 0.0000 1.0000
vt 0.0000 0.0000 1.0000
vt 0.0417 0.2000 0.9500
vt 0.0000 0.2000 0.9500
vt 0.0417 0.0000 1.0000
vt 0.0833 0.2000 0.9500
vt 0.0833 0.0000 1.0000
vt 0.1250 0.2000 0.9500
vt 0.1250 0.0000 1.0000
vt 0.1667 0.2000 0.9500
vt 0.1667 0.0000 1.0000
vt 0.2083 0.2000 0.9500
vt 0.2083 0.0000 1.0000
vt 0.2500 0.2000 0.9500
vt 0.2500 0.0000 1.0000
vt 0.2917 0.2000 0.9500
vt 0.2917 0.0000 1.0000
vt 0.3333 0.2000 0.9500
vt 0.3333 0.0000 1.0000
vt 0.3750 0.2000 0.9500
vt 0.3750 0.0000 1.0000
vt 0.4167 0.2000 0.9500
vt 0.4167 0.0000 1.0000
vt 0.4583 0.2000 0.9500
vt 0.4583 0.0000 1.0000
vt 0.5000 0.2000 0.9500
vt 0.5000 0.0000 1.0000
vt 0.5417 0.2000 0.9500
vt 0.5417 0.0000 1.0000
vt 0.5833 0.2000 0.9500
vt 0.5833 0.0000 1.0000
vt 0.6250 0.2000 0.9500
vt 0.6250 0.0000 1.0000
vt 0.6667 0.2000 0.9500
vt 0.6667 0.0000 1.0000
vt 0.7083 0.2000 0.9500
vt 0.7083 0.0000 1.0000
vt 0.7917 0.4000 0.9000
vt 0.7500 0.4000 0.9000
vt 0.8333 0.4000 0.9000
vt 0.8750 0.4000 0.9000
vt 0.9167 0.4000 0.9000
vt 0.9583 0.4000 0.9000
vt 1.0000 0.4000 0.9000
vt 0.0417 0.4000 0.9000
vt 0.0000 0.4000 0.9000
vt 0.0833 0.4000 0.9000
vt 0.1250 0.4000 0.9000
vt 0.1667 0.4000 0.9000
vt 0.2083 0.4000 0.9000
vt 0.2500 0.4000 0.9000
vt 0.2917 0.4000 0.9000
vt 0.3333 0.4000 0.9000
vt 0.3750 0.4000 0.9000
vt 0.4167 0.4000 0.9000
vt 0.4583 0.4000 0.9000
vt 0.5000 0.4000 0.9000
vt 0.5417 0.4000 0.9000
vt 0.5833 0.4000 0.9000
vt 0.6250 0.4000 0.9000
vt 0.6667 0.4000 0.9000
vt 0.7083 0.4000 0.9000
vt 0.7917 0.6000 0.8500
vt 0.7500 0.6000 0.8500
vt 0.8333 0.6000 0.8500
vt 0.8750 0.6000 0.8500
vt 0.9167 0.6000 0.8500
vt 0.9583 0.6000 0.8500
vt 1.0000 0.6000 0.8500
vt 0.0417 0.6000 0.8500
vt 0.0000 0.6000 0.8500
vt 0.0833 0.6000 0.8500
vt 0.1250 0.6000 0.8500
vt 0.1667 0.6000 0.8500
vt 0.2083 0.6000 0.8500
vt 0.2500 0.6000 0.8500
vt 0.2917 0.6000 0.8500
vt 0.3333 0.6000 0.8500
vt 0.3750 0.6000 0.8500
vt 0.4167 0.6000 0.8500
vt 0.4583 0.6000 0.8500
vt 0.5000 0.6000 0.8500
vt 0.5417 0.6000 0.8500
vt 0.5833 0.6000 0.8500
vt 0.6250 0.6000 0.8500
vt 0.6667 0.6000 0.8500
vt 0.7083 0.6000 0.8500
vt 0.7917 0.8000 0.8000
vt 0.7500 0.8000 0.8000
vt 0.8333 0.8000 0.8000
vt 0.8750 0.8000 0.8000
vt 0.9167 0.8000 0.8000
vt 0.9583 0.8000 0.8000
vt 1.0000 0.8000 0.8000
vt 0.0417 0.8000 0.8000
vt 0.0000 0.8000 0.8000
vt 0.0833 0.8000 0.8000
vt 0.1250 0.8000 0.8000
vt 0.1667 0.8000 0.8000
vt 0.2083 0.8000 0.8000
vt 0.2500 0.8000 0.8000
vt 0.2917 0.8000 0.8000
vt 0.3333 0.8000 0.8000
vt 0.3750 0.8000 0.8000
vt 0.4167 0.8000 0.8000
vt 0.4583 0.8000 0.8000
vt 0.5000 0.8000 0.8000
vt 0.5417 0.8000 0.8000
vt 0.5833 0.8000 0.8000
vt 0.6250 0.8000 0.8000
vt 0.6667 0.8000 0.8000
vt 0.7083 0.8000 0.8000
vt 0.7917 1.0000 0.7500
vt 0.7500 1.0000 0.7500
vt 0.8333 1.0000 0.7500
vt 0.8750 1.0000 0.7500
vt 0.9167 1.0000 0.7500
vt 0.9583 1.0000 0.7500
vt 1.0000 1.0000 0.7500
vt 0.0417 1.0000 0.7500
vt 0.0000 1.0000 0.7500
vt 0.0833 1.0000 0.7500
vt 0.1250 1.0000 0.7500
vt 0.1667 1.0000 0.7500
vt 0.2083 1.0000 0.7500
vt 0.2500 1.0000 0.7500
vt 0.2917 1.0000 0.7500
vt 0.3333 1.0000 0.7500
vt 0.3750 1.0000 0.7500
vt 0.4167 1.0000 0.7500
vt 0.4583 1.0000 0.7500
vt 0.5000 1.0000 0.7500
vt 0.5417 1.0000 0.7500
vt 0.5833 1.0000 0.7500
vt 0.6250 1.0000 0.7500
vt 0.6667 1.0000 0.7500
vt 0.7083 1.0000 0.7500
# 150 texture coords

o Sides
g Sides
usemtl 01___Default
s 8
f 1/1/1 2/2/2 3/3/1 
f 1/1/1 4/4/2 2/2/2 
f 4/4/2 5/5/3 2/2/2 
f 4/4/2 6/6/3 5/5/3 
f 6/6/3 7/7/4 5/5/3 
f 6/6/3 8/8/4 7/7/4 
f 8/8/4 9/9/5 7/7/4 
f 8/8/4 10/10/5 9/9/5 
f 10/10/5 11/11/6 9/9/5 
f 10/10/5 12/12/6 11/11/6 
f 12/12/6 13/13/7 11/11/6 
f 12/12/6 14/14/7 13/13/7 
f 14/15/7 15/16/8 13/17/7 
f 14/15/7 16/18/8 15/16/8 
f 16/18/8 17/19/9 15/16/8 
f 16/18/8 18/20/9 17/19/9 
f 18/20/9 19/21/10 17/19/9 
f 18/20/9 20/22/10 19/21/10 
f 20/22/10 21/23/11 19/21/10 
f 20/22/10 22/24/11 21/23/11 
f 22/24/11 23/25/12 21/23/11 
f 22/24/11 24/26/12 23/25/12 
f 24/26/12 25/27/13 23/25/12 
f 24/26/12 26/28/13 25/27/13 
f 26/28/13 27/29/14 25/27/13 
f 26/28/13 28/30/14 27/29/14 
f 28/30/14 29/31/15 27/29/14 
f 28/30/14 30/32/15 29/31/15 
f 30/32/15 31/33/16 29/31/15 
f 30/32/15 32/34/16 31/33/16 
f 32/34/16 33/35/17 31/33/16 
f 32/34/16 34/36/17 33/35/17 
f 34/36/17 35/37/18 33/35/17 
f 34/36/17 36/38/18 35/37/18 
f 36/38/18 37/39/19 35/37/18 
f 36/38/18 38/40/19 37/39/19 
f 38/40/19 39/41/20 37/39/19 
f 38/40/19 40/42/20 39/41/20 
f 40/42/20 41/43/21 39/41/20 
f 40/42/20 42/44/21 41/43/21 
f 42/44/21 43/45/22 41/43/21 
f 42/44/21 44/46/22 43/45/22 
f 44/46/22 45/47/23 43/45/22 
f 44/46/22 46/48/23 45/47/23 
f 46/48/23 47/49/24 45/47/23 
f 46/48/23 48/50/24 47/49/24 
f 48/50/24 3/3/1 47/49/24 
f 48/50/24 1/1/1 3/3/1 
f 3/3/1 49/51/2 50/52/1 
f 3/3/1 2/2/2 49/51/2 
f 2/2/2 51/53/3 49/51/2 
f 2/2/2 5/5/3 51/53/3 
f 5/5/3 52/54/4 51/53/3 
f 5/5/3 7/7/4 52/54/4 
f 7/7/4 53/55/5 52/54/4 
f 7/7/4 9/9/5 53/55/5 
f 9/9/5 54/56/6 53/55/5 
f 9/9/5 11/11/6 54/56/6 
f 11/11/6 55/57/7 54/56/6 
f 11/11/6 13/13/7 55/57/7 
f 13/17/7 56/58/8 55/59/7 
f 13/17/7 15/16/8 56/58/8 
f 15/16/8 57/60/9 56/58/8 
f 15/16/8 17/19/9 57/60/9 
f 17/19/9 58/61/10 57/60/9 
f 17/19/9 19/21/10 58/61/10 
f 19/21/10 59/62/11 58/61/10 
f 19/21/10 21/23/11 59/62/11 
f 21/23/11 60/63/12 59/62/11 
f 21/23/11 23/25/12 60/63/12 
f 23/25/12 61/64/13 60/63/12 
f 23/25/12 25/27/13 61/64/13 
f 25/27/13 62/65/14 61/64/13 
f 25/27/13 27/29/14 62/65/14 
f 27/29/14 63/66/15 62/65/14 
f 27/29/14 29/31/15 63/66/15 
f 29/31/15 64/67/16 63/66/15 
f 29/31/15 31/33/16 64/67/16 
f 31/33/16 65/68/17 64/67/16 
f 31/33/16 33/35/17 65/68/17 
f 33/35/17 66/69/18 65/68/17 
f 33/35/17 35/37/18 66/69/18 
f 35/37/18 67/70/19 66/69/18 
f 35/37/18 37/39/19 67/70/19 
f 37/39/19 68/71/20 67/70/19 
f 37/39/19 39/41/20 68/71/20 
f 39/41/20 69/72/21 68/71/20 
f 39/41/20 41/43/21 69/72/21 
f 41/43/21 70/73/22 69/72/21 
f 41/43/21 43/45/22 70/73/22 
f 43/45/22 71/74/23 70/73/22 
f 43/45/22 45/47/23 71/74/23 
f 45/47/23 72/75/24 71/74/23 
f 45/47/23 47/49/24 72/75/24 
f 47/49/24 50/52/1 72/75/24 
f 47/49/24 3/3/1 50/52/1 
f 50/52/1 73/76/2 74/77/1 
f 50/52/1 49/51/2 73/76/2 
f 49/51/2 75/78/3 73/76/2 
f 49/51/2 51/53/3 75/78/3 
f 51/53/3 76/79/4 75/78/3 
f 51/53/3 52/54/4 76/79/4 
f 52/54/4 77/80/5 76/79/4 
f 52/54/4 53/55/5 77/80/5 
f 53/55/5 78/81/6 77/80/5 
f 53/55/5 54/56/6 78/81/6 
f 54/56/6 79/82/7 78/81/6 
f 54/56/6 55/57/7 79/82/7 
f 55/59/7 80/83/8 79/84/7 
f 55/59/7 56/58/8 80/83/8 
f 56/58/8 81/85/9 80/83/8 
f 56/58/8 57/60/9 81/85/9 
f 57/60/9 82/86/10 81/85/9 
f 57/60/9 58/61/10 82/86/10 
f 58/61/10 83/87/11 82/86/10 
f 58/61/10 59/62/11 83/87/11 
f 59/62/11 84/88/12 83/87/11 
f 59/62/11 60/63/12 84/88/12 
f 60/63/12 85/89/13 84/88/12 
f 60/63/12 61/64/13 85/89/13 
f 61/64/13 86/90/14 85/89/13 
f 61/64/13 62/65/14 86/90/14 
f 62/65/14 87/91/15 86/90/14 
f 62/65/14 63/66/15 87/91/15 
f 63/66/15 88/92/16 87/91/15 
f 63/66/15 64/67/16 88/92/16 
f 64/67/16 89/93/17 88/92/16 
f 64/67/16 65/68/17 89/93/17 
f 65/68/17 90/94/18 89/93/17 
f 65/68/17 66/69/18 90/94/18 
f 66/69/18 91/95/19 90/94/18 
f 66/69/18 67/70/19 91/95/19 
f 67/70/19 92/96/20 91/95/19 
f 67/70/19 68/71/20 92/96/20 
f 68/71/20 93/97/21 92/96/20 
f 68/71/20 69/72/21 93/97/21 
f 69/72/21 94/98/22 93/97/21 
f 69/72/21 70/73/22 94/98/22 
f 70/73/22 95/99/23 94/98/22 
f 70/73/22 71/74/23 95/99/23 
f 71/74/23 96/100/24 95/99/23 
f 71/74/23 72/75/24 96/100/24 
f 72/75/24 74/77/1 96/100/24 
f 72/75/24 50/52/1 74/77/1 
f 74/77/1 97/101/2 98/102/1 
f 74/77/1 73/76/2 97/101/2 
f 73/76/2 99/103/3 97/101/2 
f 73/76/2 75/78/3 99/103/3 
f 75/78/3 100/104/4 99/103/3 
f 75/78/3 76/79/4 100/104/4 
f 76/79/4 101/105/5 100/104/4 
f 76/79/4 77/80/5 101/105/5 
f 77/80/5 102/106/6 101/105/5 
f 77/80/5 78/81/6 102/106/6 
f 78/81/6 103/107/7 102/106/6 
f 78/81/6 79/82/7 103/107/7 
f 79/84/7 104/108/8 103/109/7 
f 79/84/7 80/83/8 104/108/8 
f 80/83/8 105/110/9 104/108/8 
f 80/83/8 81/85/9 105/110/9 
f 81/85/9 106/111/10 105/110/9 
f 81/85/9 82/86/10 106/111/10 
f 82/86/10 107/112/11 106/111/10 
f 82/86/10 83/87/11 107/112/11 
f 83/87/11 108/113/12 107/112/11 
f 83/87/11 84/88/12 108/113/12 
f 84/88/12 109/114/13 108/113/12 
f 84/88/12 85/89/13 109/114/13 
f 85/89/13 110/115/14 109/114/13 
f 85/89/13 86/90/14 110/115/14 
f 86/90/14 111/116/15 110/115/14 
f 86/90/14 87/91/15 111/116/15 
f 87/91/15 112/117/16 111/116/15 
f 87/91/15 88/92/16 112/117/16 
f 88/92/16 113/118/17 112/117/16 
f 88/92/16 89/93/17 113/118/17 
f 89/93/17 114/119/18 113/118/17 
f 89/93/17 90/94/18 114/119/18 
f 90/94/18 115/120/19 114/119/18 
f 90/94/18 91/95/19 115/120/19 
f 91/95/19 116/121/20 115/120/19 
f 91/95/19 92/96/20 116/121/20 
f 92/96/20 117/122/21 116/121/20 
f 92/96/20 93/97/21 117/122/21 
f 93/97/21 118/123/22 117/122/21 
f 93/97/21 94/98/22 118/123/22 
f 94/98/22 119/124/23 118/123/22 
f 94/98/22 95/99/23 119/124/23 
f 95/99/23 120/125/24 119/124/23 
f 95/99/23 96/100/24 120/125/24 
f 96/100/24 98/102/1 120/125/24 
f 96/100/24 74/77/1 98/102/1 
f 98/102/1 121/126/2 122/127/1 
f 98/102/1 97/101/2 121/126/2 
f 97/101/2 123/128/3 121/126/2 
f 97/101/2 99/103/3 123/128/3 
f 99/103/3 124/129/4 123/128/3 
f 99/103/3 100/104/4 124/129/4 
f 100/104/4 125/130/5 124/129/4 
f 100/104/4 101/105/5 125/130/5 
f 101/105/5 126/131/6 125/130/5 
f 101/105/5 102/106/6 126/131/6 
f 102/106/6 127/132/7 126/131/6 
f 102/106/6 103/107/7 127/132/7 
f 103/109/7 128/133/8 127/134/7 
f 103/109/7 104/108/8 128/133/8 
f 104/108/8 129/135/9 128/133/8 
f 104/108/8 105/110/9 129/135/9 
f 105/110/9 130/136/10 129/135/9 
f 105/110/9 106/111/10 130/136/10 
f 106/111/10 131/137/11 130/136/10 
f 106/111/10 107/112/11 131/137/11 
f 107/112/11 132/138/12 131/137/11 
f 107/112/11 108/113/12 132/138/12 
f 108/113/12 133/139/13 132/138/12 
f 108/113/12 109/114/13 133/139/13 
f 109/114/13 134/140/14 133/139/13 
f 109/114/13 110/115/14 134/140/14 
f 110/115/14 135/141/15 134/140/14 
f 110/115/14 111/116/15 135/141/15 
f 111/116/15 136/142/16 135/141/15 
f 111/116/15 112/117/16 136/142/16 
f 112/117/16 137/143/17 136/142/16 
f 112/117/16 113/118/17 137/143/17 
f 113/118/17 138/144/18 137/143/17 
f 113/118/17 114/119/18 138/144/18 
f 114/119/18 139/145/19 138/144/18 
f 114/119/18 115/120/19 139/145/19 
f 115/120/19 140/146/20 139/145/19 
f 115/120/19 116/121/20 140/146/20 
f 116/121/20 141/147/21 140/146/20 
f 116/121/20 117/122/21 141/147/21 
f 117/122/21 142/148/22 141/147/21 
f 117/122/21 118/123/22 142/148/22 
f 118/123/22 143/149/23 142/148/22 
f 118/123/22 119/124/23 143/149/23 
f 119/124/23 144/150/24 143/149/23 
f 119/124/23 120/125/24 144/150/24 
f 120/125/24 122/127/1 144/150/24 
f 120/125/24 98/102/1 122/127/1 
# 240 faces

